<svg width="44" height="44" viewBox="0 0 44 44" fill="none" xmlns="http://www.w3.org/2000/svg">
<g clip-path="url(#clip0)">
<path d="M39.875 5.49998H4.12503C1.85035 5.49998 0 7.35033 0 9.62501V34.375C0 36.6497 1.85035 38.5 4.12503 38.5H39.875C42.1497 38.5 44 36.6497 44 34.375V9.62501C44 7.35033 42.1497 5.49998 39.875 5.49998ZM39.875 8.24997C40.0618 8.24997 40.2395 8.28873 40.402 8.35642L22 24.3056L3.59792 8.35642C3.7604 8.28882 3.93812 8.24997 4.12494 8.24997H39.875ZM39.875 35.75H4.12503C3.36637 35.75 2.74999 35.1337 2.74999 34.3749V11.2618L21.099 27.1643C21.3582 27.3885 21.6791 27.5 22 27.5C22.3209 27.5 22.6418 27.3886 22.901 27.1643L41.25 11.2618V34.375C41.2499 35.1337 40.6336 35.75 39.875 35.75Z" fill="#313131"/>
</g>
<defs>
<clipPath id="clip0">
<rect width="44" height="44" fill="white"/>
</clipPath>
</defs>
</svg>
