<svg width="20" height="20" viewBox="0 0 20 20" fill="none" xmlns="http://www.w3.org/2000/svg">
<path d="M7.49997 8.76297C5.20245 8.76297 3.33325 6.89392 3.33325 4.59641C3.33325 2.29889 5.20245 0.429688 7.49997 0.429688C9.79749 0.429688 11.6667 2.29889 11.6667 4.59641C11.6667 6.89392 9.79749 8.76297 7.49997 8.76297ZM7.49997 1.67969C5.89169 1.67969 4.58325 2.98798 4.58325 4.59641C4.58325 6.20468 5.89169 7.51297 7.49997 7.51297C9.10825 7.51297 10.4167 6.20468 10.4167 4.59641C10.4167 2.98798 9.10825 1.67969 7.49997 1.67969Z" fill="black"/>
<path d="M18.5417 19.5964H13.9583C13.1541 19.5964 12.5 18.9422 12.5 18.1379V15.2214C12.5 14.4171 13.1541 13.7629 13.9583 13.7629H18.5417C19.3459 13.7629 20 14.4171 20 15.2214V18.1379C20 18.9422 19.3459 19.5964 18.5417 19.5964ZM13.9583 15.0129C13.8434 15.0129 13.75 15.1063 13.75 15.2214V18.1379C13.75 18.253 13.8434 18.3464 13.9583 18.3464H18.5417C18.6566 18.3464 18.75 18.253 18.75 18.1379V15.2214C18.75 15.1063 18.6566 15.0129 18.5417 15.0129H13.9583Z" fill="black"/>
<path d="M17.7083 15.013H14.7917C14.4467 15.013 14.1667 14.733 14.1667 14.388V12.513C14.1667 11.3647 15.1017 10.4297 16.25 10.4297C17.3984 10.4297 18.3333 11.3647 18.3333 12.513V14.388C18.3333 14.733 18.0533 15.013 17.7083 15.013ZM15.4167 13.763H17.0833V12.513C17.0833 12.0538 16.7092 11.6797 16.25 11.6797C15.7909 11.6797 15.4167 12.0538 15.4167 12.513V13.763Z" fill="black"/>
<path d="M10.4167 17.9297H0.625C0.279999 17.9297 0 17.6497 0 17.3047V14.388C0 12.2055 1.77582 10.4297 3.95828 10.4297H11.25C11.9467 10.4297 12.6324 10.6139 13.2326 10.963C13.5309 11.1363 13.6316 11.5189 13.4584 11.8172C13.2851 12.1164 12.9025 12.2163 12.6033 12.043C12.1942 11.8056 11.7258 11.6797 11.25 11.6797H3.95828C2.46506 11.6797 1.25 12.8947 1.25 14.388V16.6797H10.4167C10.7617 16.6797 11.0417 16.9597 11.0417 17.3047C11.0417 17.6497 10.7617 17.9297 10.4167 17.9297Z" fill="black"/>
</svg>
