<svg width="15" height="23" viewBox="0 0 15 23" fill="none" xmlns="http://www.w3.org/2000/svg">
<path d="M3.35419 22.6437C3.2469 22.6437 3.14065 22.6229 3.03961 22.5781C2.71669 22.4375 2.52919 22.099 2.58128 21.751L3.86044 12.8687H0.814609C0.585442 12.8687 0.366692 12.7667 0.217734 12.5917C0.0677339 12.4146 0.00523405 12.1823 0.0437757 11.9562L1.80211 1.60417C1.86669 1.22917 2.19065 0.953125 2.57294 0.953125H9.66669C9.90628 0.953125 10.1323 1.0625 10.2813 1.25C10.4292 1.4375 10.4834 1.68229 10.4271 1.91667L8.92086 8.24479H13.7917C14.0938 8.24479 14.3677 8.41771 14.4979 8.69063C14.6271 8.96354 14.5886 9.28437 14.3979 9.51979L3.96044 22.3542C3.80836 22.5417 3.58336 22.6417 3.35315 22.6417L3.35419 22.6437ZM1.73961 11.3042H4.76357C4.99065 11.3042 5.20627 11.4031 5.35419 11.575C5.50211 11.7458 5.56878 11.9729 5.53648 12.1979L4.53023 19.1771L12.1479 9.80729H7.92919C7.69169 9.80729 7.46565 9.69792 7.31669 9.51042C7.16878 9.32292 7.11461 9.07812 7.17086 8.84375L8.67711 2.51562H3.23336L1.73961 11.3042Z" fill="#5D5D5D"/>
</svg>
