<svg width="25" height="25" viewBox="0 0 25 25" fill="none" xmlns="http://www.w3.org/2000/svg">
<g clip-path="url(#clip0_16_596)">
<path d="M12.72 0.561157C6.09325 0.561157 0.719971 5.93338 0.719971 12.5606C0.719971 19.1879 6.09272 24.5601 12.72 24.5601C19.3477 24.5601 24.72 19.1879 24.72 12.5606C24.72 5.93338 19.3477 0.561157 12.72 0.561157ZM12.72 4.14914C14.9127 4.14914 16.6896 5.92653 16.6896 8.11822C16.6896 10.3104 14.9127 12.0873 12.72 12.0873C10.5283 12.0873 8.75142 10.3104 8.75142 8.11822C8.75142 5.92653 10.5283 4.14914 12.72 4.14914ZM12.7173 21.4228C10.5304 21.4228 8.5274 20.6263 6.98247 19.3081C6.60612 18.9871 6.38895 18.5164 6.38895 18.0225C6.38895 15.7997 8.18795 14.0207 10.4113 14.0207H15.0297C17.2536 14.0207 19.0457 15.7997 19.0457 18.0225C19.0457 18.5169 18.8296 18.9865 18.4527 19.3075C16.9083 20.6263 14.9048 21.4228 12.7173 21.4228Z" fill="#313131"/>
</g>
<defs>
<clipPath id="clip0_16_596">
<rect width="24" height="24" fill="white" transform="translate(0.719971 0.559998)"/>
</clipPath>
</defs>
</svg>
