<svg width="20" height="20" viewBox="0 0 20 20" fill="none" xmlns="http://www.w3.org/2000/svg">
<path fill-rule="evenodd" clip-rule="evenodd" d="M12.2263 0.857178C12.4423 0.857178 12.6266 0.990892 12.6926 1.18032L12.7114 1.25318L13.0697 3.75175C13.5788 3.94889 14.0271 4.20346 14.454 4.49575L14.7077 4.67575L17.1214 3.73289C17.2162 3.69642 17.3201 3.69061 17.4183 3.71629C17.5166 3.74197 17.6043 3.79785 17.6691 3.87603L17.712 3.94032L19.6517 7.20261C19.7009 7.2877 19.7221 7.38607 19.7124 7.48387C19.7027 7.58166 19.6626 7.67395 19.5977 7.74775L19.5351 7.80604L17.49 9.34289C17.5286 9.66346 17.5577 9.97461 17.5577 10.2857C17.5577 10.4932 17.5448 10.6972 17.5243 10.8986L17.49 11.2003L19.5351 12.7655C19.6127 12.8254 19.6693 12.9083 19.6968 13.0025C19.7242 13.0966 19.721 13.197 19.6877 13.2892L19.6517 13.3689L17.7128 16.6312C17.6615 16.7168 17.5852 16.7846 17.4942 16.8255C17.4032 16.8664 17.3018 16.8785 17.2037 16.86L17.1214 16.8386L14.7077 15.8863C14.2877 16.2009 13.854 16.4692 13.368 16.692L13.0697 16.8197L12.7114 19.3183C12.693 19.4175 12.644 19.5084 12.5713 19.5784C12.4986 19.6483 12.4058 19.6937 12.306 19.7083L12.2263 19.7143H8.34942C8.24779 19.7154 8.14832 19.6849 8.06479 19.627C7.98125 19.5691 7.91777 19.4867 7.88313 19.3912L7.86427 19.3183L7.50599 16.8197C7.00182 16.6214 6.52441 16.3608 6.08484 16.044L5.86799 15.8863L3.45427 16.8386C3.36073 16.8718 3.25947 16.8765 3.16323 16.8523C3.06699 16.828 2.98008 16.7758 2.91342 16.7023L2.86284 16.6312L0.923987 13.3689C0.871541 13.2832 0.848982 13.1825 0.859838 13.0827C0.870695 12.9828 0.914355 12.8893 0.983987 12.8169L1.04056 12.7655L3.0857 11.2003C3.04352 10.8972 3.02091 10.5917 3.01799 10.2857C3.01799 10.0783 3.03084 9.87089 3.05142 9.66004L3.0857 9.34289L1.04056 7.80604C0.960442 7.74599 0.902221 7.66134 0.874819 7.56504C0.847416 7.46874 0.852343 7.36612 0.888844 7.27289L0.923987 7.20261L2.86284 3.94032C2.91406 3.85228 2.99178 3.78268 3.0849 3.74142C3.17803 3.70017 3.2818 3.68939 3.38142 3.71061L3.45427 3.73289L5.86799 4.67575C6.28799 4.36975 6.7217 4.09546 7.2077 3.87689L7.50599 3.75175L7.86427 1.25318C7.88271 1.154 7.93171 1.06307 8.00442 0.993132C8.07712 0.923195 8.16988 0.877755 8.2697 0.863178L8.34942 0.857178H12.2263ZM11.1686 2.57146H9.40713L9.05999 4.98861L8.12313 5.35118C7.71685 5.50804 7.33199 5.72918 6.87856 6.06089L6.11913 6.61461L3.80484 5.71032L2.9717 7.11261L4.90627 8.56632L4.76742 9.72775C4.74342 9.95318 4.73313 10.1272 4.73313 10.2857C4.73313 10.4426 4.74342 10.6106 4.76656 10.818L4.91227 11.9615L2.96656 13.4503L3.80313 14.8577L6.12856 13.9406L6.89484 14.514C7.33199 14.8397 7.71513 15.0626 8.12313 15.2203L9.05999 15.582L9.40713 18H11.1686L11.5131 15.5975L12.4311 15.2289C12.8691 15.0532 13.2634 14.826 13.6808 14.514L14.4471 13.9397L16.7726 14.8586L17.6091 13.4503L15.6634 11.9615L15.8091 10.818L15.8348 10.5326C15.8404 10.4504 15.8432 10.3681 15.8434 10.2857C15.8434 10.1272 15.8323 9.95318 15.8091 9.72775L15.6694 8.56632L17.604 7.11261L16.7708 5.71032L14.4566 6.61461L13.6971 6.06089C13.2437 5.72918 12.8588 5.50804 12.4526 5.35118L11.5157 4.98946L11.1686 2.57146ZM10.2857 6.85718C11.195 6.85718 12.0671 7.2184 12.7101 7.86138C13.3531 8.50436 13.7143 9.37644 13.7143 10.2857C13.7143 11.1951 13.3531 12.0671 12.7101 12.7101C12.0671 13.3531 11.195 13.7143 10.2857 13.7143C9.37639 13.7143 8.50432 13.3531 7.86134 12.7101C7.21835 12.0671 6.85713 11.1951 6.85713 10.2857C6.85713 9.37644 7.21835 8.50436 7.86134 7.86138C8.50432 7.2184 9.37639 6.85718 10.2857 6.85718ZM10.2857 8.57146C9.83105 8.57146 9.39501 8.75208 9.07352 9.07357C8.75203 9.39506 8.57142 9.83109 8.57142 10.2857C8.57142 10.7404 8.75203 11.1764 9.07352 11.4979C9.39501 11.8194 9.83105 12 10.2857 12C10.7404 12 11.1764 11.8194 11.4979 11.4979C11.8194 11.1764 12 10.7404 12 10.2857C12 9.83109 11.8194 9.39506 11.4979 9.07357C11.1764 8.75208 10.7404 8.57146 10.2857 8.57146Z" fill="#5E5E5E"/>
</svg>
