<svg width="21" height="21" viewBox="0 0 21 21" fill="none" xmlns="http://www.w3.org/2000/svg">
<path d="M19.0646 7.54167H17.675C17.6906 7.44792 17.7041 7.35209 17.7041 7.25313V4.84376C17.7041 3.82292 16.8739 2.99272 15.8521 2.99272H1.64581V1.49792C1.64581 1.06667 1.29581 0.716675 0.864563 0.716675C0.433313 0.716675 0.083313 1.06667 0.083313 1.49792V19.6979C0.083313 20.1302 0.433313 20.4792 0.864563 20.4792C1.29581 20.4792 1.64581 20.1302 1.64581 19.6979V18.2042H12.6416C13.6625 18.2042 14.4937 17.374 14.4937 16.3531V13.9438C14.4937 13.8448 14.4791 13.749 14.4646 13.6542H19.0656C20.0864 13.6542 20.9177 12.8229 20.9177 11.8021V9.39584C20.9177 8.37188 20.0875 7.54167 19.0656 7.54167H19.0646ZM15.8541 4.55522C16.0125 4.55522 16.1427 4.68438 16.1427 4.84376V7.25001C16.1427 7.41042 16.0125 7.54167 15.8531 7.54167H1.64581V4.55209H15.8541V4.55522ZM12.9302 13.9448V16.3531C12.9302 16.5125 12.8 16.6417 12.6406 16.6417H1.64581V13.6542H12.6416C12.801 13.6542 12.9302 13.7854 12.9302 13.9458V13.9448ZM19.3541 11.8021C19.3541 11.9615 19.2239 12.0906 19.0646 12.0906H1.64581V9.10417H19.0646C19.2239 9.10417 19.3541 9.23334 19.3541 9.39272V11.8021Z" fill="#5D5D5D"/>
</svg>
